<?xml version="1.0" encoding="iso-8859-1"?>
<!-- Generator: Adobe Illustrator 19.0.0, SVG Export Plug-In . SVG Version: 6.00 Build 0)  -->
<svg xmlns="http://www.w3.org/2000/svg" xmlns:xlink="http://www.w3.org/1999/xlink" version="1.1" id="Layer_1" x="0px" y="0px" viewBox="0 0 512 512" style="enable-background:new 0 0 512 512;" xml:space="preserve" width="512" height="512">
<g id="XMLID_2848_">
	<g id="XMLID_521_">
		<path id="XMLID_522_" d="M302.032,315v-0.131c0-5.522-4.477-10-10-10s-10,4.478-10,10V315c0,5.522,4.477,10,10,10    S302.032,320.523,302.032,315z"/>
		<path id="XMLID_1548_" d="M125.359,74.75c0,5.482-2.135,10.636-6.012,14.512c-3.905,3.905-3.905,10.237,0,14.143    c1.953,1.953,4.512,2.929,7.071,2.929s5.119-0.976,7.071-2.929c15.8-15.8,15.8-41.509,0-57.31c-8.002-8.002-8.002-21.022,0-29.024    c3.905-3.905,3.905-10.237,0-14.143c-3.905-3.905-10.237-3.905-14.143,0c-7.653,7.654-11.869,17.83-11.869,28.654    c0,10.825,4.215,21.001,11.869,28.655C123.224,64.115,125.359,69.268,125.359,74.75z"/>
		<path id="XMLID_1551_" d="M176.929,89.263c-3.905,3.905-3.905,10.237,0,14.142c1.953,1.953,4.512,2.929,7.071,2.929    s5.119-0.977,7.071-2.929c15.799-15.8,15.799-41.509,0-57.309c-3.876-3.876-6.011-9.03-6.011-14.512    c0-5.482,2.135-10.636,6.011-14.512c3.905-3.905,3.905-10.237,0-14.143s-10.237-3.905-14.143,0c-15.8,15.8-15.8,41.509,0,57.309    C184.931,68.24,184.931,81.26,176.929,89.263z"/>
		<path id="XMLID_1552_" d="M234.51,89.263c-3.905,3.905-3.905,10.237,0,14.142c1.953,1.953,4.512,2.929,7.071,2.929    s5.119-0.977,7.071-2.929c15.799-15.8,15.799-41.509,0-57.309c-3.876-3.876-6.011-9.03-6.011-14.512    c0-5.482,2.135-10.636,6.011-14.512c3.905-3.905,3.906-10.237,0-14.142c-3.906-3.906-10.237-3.904-14.142,0    c-7.654,7.654-11.87,17.83-11.87,28.654c0,10.825,4.215,21.001,11.869,28.654C242.512,68.24,242.512,81.26,234.51,89.263z"/>
		<path id="XMLID_1555_" d="M409.625,162.375H360v-31c0-5.523-4.477-10-10-10H18c-5.523,0-10,4.477-10,10V333.19    c0,5.522,4.477,10,10,10s10-4.478,10-10V141.375h254.031v133.494c0,5.522,4.477,10,10,10s10-4.478,10-10V141.375H340v31.013    v44.987V403v44c0,24.813-20.187,45-45,45H73c-24.813,0-45-20.187-45-45V413.19c0-5.522-4.477-10-10-10s-10,4.478-10,10V447    c0,35.841,29.159,65,65,65h222c32.091,0,58.807-23.382,64.05-54h50.575C461.664,458,504,415.663,504,363.625V256.75    C504,204.712,461.664,162.375,409.625,162.375z M360,227.375h49.625c16.197,0,29.375,13.178,29.375,29.375v106.875    C439,379.823,425.822,393,409.625,393H360V227.375z M484,363.625C484,404.636,450.636,438,409.625,438H360v-25h49.625    C436.851,413,459,390.851,459,363.625V256.75c0-27.226-22.149-49.375-49.375-49.375H360v-25h49.625    c41.011,0,74.375,33.364,74.375,74.375V363.625z"/>
		<path id="XMLID_1566_" d="M18,383.19c2.63,0,5.21-1.069,7.07-2.93s2.93-4.44,2.93-7.07s-1.07-5.21-2.93-7.069    c-1.86-1.86-4.44-2.931-7.07-2.931c-2.63,0-5.21,1.07-7.07,2.931C9.07,367.98,8,370.56,8,373.19s1.07,5.21,2.93,7.07    C12.79,382.12,15.37,383.19,18,383.19z"/>
	</g>
</g>















</svg>
