<?xml version="1.0" encoding="iso-8859-1"?>
<!-- Generator: Adobe Illustrator 19.0.0, SVG Export Plug-In . SVG Version: 6.00 Build 0)  -->
<svg xmlns="http://www.w3.org/2000/svg" xmlns:xlink="http://www.w3.org/1999/xlink" version="1.1" id="Layer_1" x="0px" y="0px" viewBox="0 0 512 512" style="enable-background:new 0 0 512 512;" xml:space="preserve" width="512" height="512">
<g id="XMLID_2064_">
	<g id="XMLID_455_">
		<path id="XMLID_474_" d="M334.941,176.579c-8.608-5.648-14.671-14.579-16.749-24.59V84.994c0-5.523-4.477-10-10-10    c-6.062,0-10.994-4.932-10.994-10.994c0-5.523-4.477-10-10-10h-21.326V10c0-5.523-4.477-10-10-10s-10,4.477-10,10v44h-20.846    c-5.523,0-10,4.477-10,10c0,6.062-4.932,10.994-10.994,10.994c-5.523,0-10,4.477-10,10v67.001    c-2.078,10.036-8.04,18.899-16.471,24.403c-40.893,26.699-65.307,71.756-65.307,120.526c0,38.433,14.968,74.563,42.148,101.735    c27.171,27.164,63.287,42.121,101.708,42.121c0.012,0,0.029,0,0.041,0c38.471-0.01,74.603-14.967,101.741-42.115    c27.138-27.147,42.081-63.286,42.077-101.757C399.965,248.278,375.655,203.295,334.941,176.579z M214.034,93.339    c9.06-3.097,16.242-10.279,19.339-19.339h45.481c3.097,9.06,10.279,16.242,19.339,19.339V104H256c-5.523,0-10,4.477-10,10    s4.477,10,10,10h42.192v19.024h-84.159V93.339z M256.147,420.78c-0.012,0-0.023,0-0.035,0c-33.077,0-64.175-12.879-87.568-36.266    c-23.401-23.395-36.288-54.501-36.288-87.591c0-41.991,21.024-80.787,56.241-103.78c10.851-7.084,19.028-17.768,23.226-30.12    h11.543v81.98h-6.333c-14.52,0-26.333,11.813-26.333,26.333v1.333c0,14.521,11.813,26.333,26.333,26.333    c14.521,0,26.333-11.813,26.333-26.333v-7.666h24v7.666c0,14.521,11.813,26.333,26.333,26.333h1.694    c14.52,0,26.333-11.813,26.333-26.333v-1.333c0-14.521-11.813-26.333-26.333-26.333h-8.027v-11.98c0-5.523-4.477-10-10-10    s-10,4.477-10,10v11.98h-24v-81.98h57.239c4.206,12.305,12.47,23.063,23.463,30.276c35.063,23.007,55.998,61.74,56.002,103.609    C379.977,365.194,324.43,420.763,256.147,420.78z M223.266,265.005v7.666c0,3.492-2.841,6.333-6.333,6.333    s-6.333-2.841-6.333-6.333v-1.333c0-3.492,2.841-6.333,6.333-6.333H223.266z M287.266,272.671v-7.666h8.027    c3.492,0,6.333,2.841,6.333,6.333v1.333c0,3.492-2.841,6.333-6.333,6.333h-1.694C290.107,279.004,287.266,276.163,287.266,272.671    z"/>
		<path id="XMLID_484_" d="M256.113,456.391c-5.523,0-10,4.478-10,10V502c0,5.522,4.477,10,10,10s10-4.478,10-10v-35.609    C266.113,460.868,261.636,456.391,256.113,456.391z"/>
		<path id="XMLID_485_" d="M461.077,286.811h-35.61c-5.523,0-10,4.478-10,10s4.477,10,10,10h35.61c5.523,0,10-4.478,10-10    S466.6,286.811,461.077,286.811z"/>
		<path id="XMLID_486_" d="M86.533,287.036h-35.61c-5.523,0-10,4.478-10,10s4.477,10,10,10h35.61c5.523,0,10-4.478,10-10    S92.056,287.036,86.533,287.036z"/>
		<path id="XMLID_487_" d="M375.751,187.013c2.559,0,5.119-0.976,7.071-2.929l25.18-25.18c3.905-3.905,3.905-10.237,0-14.143    c-3.905-3.905-10.237-3.905-14.143,0l-25.18,25.18c-3.905,3.905-3.905,10.237,0,14.143    C370.632,186.037,373.192,187.013,375.751,187.013z"/>
		<path id="XMLID_488_" d="M129.178,409.764l-25.18,25.18c-3.905,3.905-3.906,10.237,0,14.143c1.953,1.952,4.512,2.929,7.071,2.929    c2.559,0,5.119-0.977,7.071-2.929l25.18-25.18c3.905-3.905,3.906-10.237,0-14.143    C139.415,405.859,133.083,405.859,129.178,409.764z"/>
		<path id="XMLID_489_" d="M382.982,409.604c-3.905-3.904-10.237-3.904-14.143,0c-3.905,3.905-3.905,10.237,0,14.143l25.18,25.18    c1.953,1.952,4.512,2.929,7.071,2.929s5.119-0.977,7.071-2.929c3.905-3.905,3.905-10.237,0-14.143L382.982,409.604z"/>
		<path id="XMLID_490_" d="M129.018,184.244c1.953,1.953,4.512,2.929,7.071,2.929s5.119-0.976,7.071-2.929    c3.905-3.905,3.905-10.237,0-14.143l-25.18-25.18c-3.905-3.905-10.237-3.905-14.143,0s-3.905,10.237,0,14.143L129.018,184.244z"/>
		<path id="XMLID_960_" d="M343.207,286.909c-5.523,0.001-10,4.479-9.999,10.001c0.003,29.442-16.337,55.889-42.644,69.018    c-4.942,2.466-6.948,8.471-4.482,13.413c1.751,3.508,5.284,5.536,8.956,5.536c1.5,0,3.024-0.339,4.458-1.055    c33.135-16.536,53.717-49.84,53.713-86.914C353.207,291.386,348.729,286.908,343.207,286.909z"/>
		<path id="XMLID_961_" d="M277.263,183.02c-2.63,0-5.21,1.07-7.07,2.93c-1.86,1.86-2.93,4.44-2.93,7.07c0,2.64,1.07,5.21,2.93,7.08    c1.86,1.86,4.44,2.92,7.07,2.92c2.64,0,5.21-1.06,7.07-2.92c1.87-1.87,2.93-4.44,2.93-7.08c0-2.63-1.06-5.21-2.93-7.07    C282.473,184.09,279.903,183.02,277.263,183.02z"/>
		<path id="XMLID_962_" d="M256.153,374c-2.64,0-5.21,1.069-7.07,2.93c-1.87,1.86-2.93,4.44-2.93,7.07s1.06,5.21,2.93,7.069    c1.86,1.86,4.43,2.931,7.07,2.931c2.63,0,5.21-1.07,7.07-2.931c1.86-1.859,2.93-4.439,2.93-7.069s-1.07-5.21-2.93-7.07    C261.363,375.069,258.783,374,256.153,374z"/>
	</g>
</g>















</svg>
